<?xml version="1.0" encoding="utf-8" standalone="no"?>
<!DOCTYPE svg PUBLIC "-//W3C//DTD SVG 1.1//EN"
  "http://www.w3.org/Graphics/SVG/1.1/DTD/svg11.dtd">
<svg xmlns:xlink="http://www.w3.org/1999/xlink" width="413.099773pt" height="325.986375pt" viewBox="0 0 413.099773 325.986375" xmlns="http://www.w3.org/2000/svg" version="1.1">
 <metadata>
  <rdf:RDF xmlns:dc="http://purl.org/dc/elements/1.1/" xmlns:cc="http://creativecommons.org/ns#" xmlns:rdf="http://www.w3.org/1999/02/22-rdf-syntax-ns#">
   <cc:Work>
    <dc:type rdf:resource="http://purl.org/dc/dcmitype/StillImage"/>
    <dc:date>2026-04-03T13:55:27.423570</dc:date>
    <dc:format>image/svg+xml</dc:format>
    <dc:creator>
     <cc:Agent>
      <dc:title>Matplotlib v3.10.8, https://matplotlib.org/</dc:title>
     </cc:Agent>
    </dc:creator>
   </cc:Work>
  </rdf:RDF>
 </metadata>
 <defs>
  <style type="text/css">*{stroke-linejoin: round; stroke-linecap: butt}</style>
 </defs>
 <g id="figure_1">
  <g id="patch_1">
   <path d="M 0 325.986375 
L 413.099773 325.986375 
L 413.099773 0 
L 0 0 
z
" style="fill: #ffffff"/>
  </g>
  <g id="axes_1">
   <g id="patch_2">
    <path d="M 43.78125 288.430125 
L 400.90125 288.430125 
L 400.90125 22.318125 
L 43.78125 22.318125 
z
" style="fill: #ffffff"/>
   </g>
   <g id="matplotlib.axis_1">
    <g id="xtick_1">
     <g id="line2d_1">
      <defs>
       <path id="mefa6fc27a7" d="M 0 0 
L 0 3.5 
" style="stroke: #000000; stroke-width: 0.8"/>
      </defs>
      <g>
       <use xlink:href="#mefa6fc27a7" x="60.013977" y="288.430125" style="stroke: #000000; stroke-width: 0.8"/>
      </g>
     </g>
     <g id="text_1">
      <!-- LEVEL_I -->
      <g transform="translate(40.72804 302.750437) scale(0.1 -0.1)">
       <defs>
        <path id="DejaVuSans-4c" d="M 628 4666 
L 1259 4666 
L 1259 531 
L 3531 531 
L 3531 0 
L 628 0 
L 628 4666 
z
" transform="scale(0.015625)"/>
        <path id="DejaVuSans-45" d="M 628 4666 
L 3578 4666 
L 3578 4134 
L 1259 4134 
L 1259 2753 
L 3481 2753 
L 3481 2222 
L 1259 2222 
L 1259 531 
L 3634 531 
L 3634 0 
L 628 0 
L 628 4666 
z
" transform="scale(0.015625)"/>
        <path id="DejaVuSans-56" d="M 1831 0 
L 50 4666 
L 709 4666 
L 2188 738 
L 3669 4666 
L 4325 4666 
L 2547 0 
L 1831 0 
z
" transform="scale(0.015625)"/>
        <path id="DejaVuSans-5f" d="M 3263 -1063 
L 3263 -1509 
L -63 -1509 
L -63 -1063 
L 3263 -1063 
z
" transform="scale(0.015625)"/>
        <path id="DejaVuSans-49" d="M 628 4666 
L 1259 4666 
L 1259 0 
L 628 0 
L 628 4666 
z
" transform="scale(0.015625)"/>
       </defs>
       <use xlink:href="#DejaVuSans-4c"/>
       <use xlink:href="#DejaVuSans-45" transform="translate(55.712891 0)"/>
       <use xlink:href="#DejaVuSans-56" transform="translate(118.896484 0)"/>
       <use xlink:href="#DejaVuSans-45" transform="translate(187.304688 0)"/>
       <use xlink:href="#DejaVuSans-4c" transform="translate(250.488281 0)"/>
       <use xlink:href="#DejaVuSans-5f" transform="translate(306.201172 0)"/>
       <use xlink:href="#DejaVuSans-49" transform="translate(356.201172 0)"/>
      </g>
     </g>
    </g>
    <g id="xtick_2">
     <g id="line2d_2">
      <g>
       <use xlink:href="#mefa6fc27a7" x="141.177614" y="288.430125" style="stroke: #000000; stroke-width: 0.8"/>
      </g>
     </g>
     <g id="text_2">
      <!-- LEVEL_II -->
      <g transform="translate(120.416676 302.750437) scale(0.1 -0.1)">
       <use xlink:href="#DejaVuSans-4c"/>
       <use xlink:href="#DejaVuSans-45" transform="translate(55.712891 0)"/>
       <use xlink:href="#DejaVuSans-56" transform="translate(118.896484 0)"/>
       <use xlink:href="#DejaVuSans-45" transform="translate(187.304688 0)"/>
       <use xlink:href="#DejaVuSans-4c" transform="translate(250.488281 0)"/>
       <use xlink:href="#DejaVuSans-5f" transform="translate(306.201172 0)"/>
       <use xlink:href="#DejaVuSans-49" transform="translate(356.201172 0)"/>
       <use xlink:href="#DejaVuSans-49" transform="translate(385.693359 0)"/>
      </g>
     </g>
    </g>
    <g id="xtick_3">
     <g id="line2d_3">
      <g>
       <use xlink:href="#mefa6fc27a7" x="222.34125" y="288.430125" style="stroke: #000000; stroke-width: 0.8"/>
      </g>
     </g>
     <g id="text_3">
      <!-- LEVEL_III -->
      <g transform="translate(200.105312 302.750437) scale(0.1 -0.1)">
       <use xlink:href="#DejaVuSans-4c"/>
       <use xlink:href="#DejaVuSans-45" transform="translate(55.712891 0)"/>
       <use xlink:href="#DejaVuSans-56" transform="translate(118.896484 0)"/>
       <use xlink:href="#DejaVuSans-45" transform="translate(187.304688 0)"/>
       <use xlink:href="#DejaVuSans-4c" transform="translate(250.488281 0)"/>
       <use xlink:href="#DejaVuSans-5f" transform="translate(306.201172 0)"/>
       <use xlink:href="#DejaVuSans-49" transform="translate(356.201172 0)"/>
       <use xlink:href="#DejaVuSans-49" transform="translate(385.693359 0)"/>
       <use xlink:href="#DejaVuSans-49" transform="translate(415.185547 0)"/>
      </g>
     </g>
    </g>
    <g id="xtick_4">
     <g id="line2d_4">
      <g>
       <use xlink:href="#mefa6fc27a7" x="303.504886" y="288.430125" style="stroke: #000000; stroke-width: 0.8"/>
      </g>
     </g>
     <g id="text_4">
      <!-- LEVEL_IV -->
      <g transform="translate(280.798636 302.750437) scale(0.1 -0.1)">
       <use xlink:href="#DejaVuSans-4c"/>
       <use xlink:href="#DejaVuSans-45" transform="translate(55.712891 0)"/>
       <use xlink:href="#DejaVuSans-56" transform="translate(118.896484 0)"/>
       <use xlink:href="#DejaVuSans-45" transform="translate(187.304688 0)"/>
       <use xlink:href="#DejaVuSans-4c" transform="translate(250.488281 0)"/>
       <use xlink:href="#DejaVuSans-5f" transform="translate(306.201172 0)"/>
       <use xlink:href="#DejaVuSans-49" transform="translate(356.201172 0)"/>
       <use xlink:href="#DejaVuSans-56" transform="translate(385.693359 0)"/>
      </g>
     </g>
    </g>
    <g id="xtick_5">
     <g id="line2d_5">
      <g>
       <use xlink:href="#mefa6fc27a7" x="384.668523" y="288.430125" style="stroke: #000000; stroke-width: 0.8"/>
      </g>
     </g>
     <g id="text_5">
      <!-- LEVEL_V -->
      <g transform="translate(363.437273 302.750437) scale(0.1 -0.1)">
       <use xlink:href="#DejaVuSans-4c"/>
       <use xlink:href="#DejaVuSans-45" transform="translate(55.712891 0)"/>
       <use xlink:href="#DejaVuSans-56" transform="translate(118.896484 0)"/>
       <use xlink:href="#DejaVuSans-45" transform="translate(187.304688 0)"/>
       <use xlink:href="#DejaVuSans-4c" transform="translate(250.488281 0)"/>
       <use xlink:href="#DejaVuSans-5f" transform="translate(306.201172 0)"/>
       <use xlink:href="#DejaVuSans-56" transform="translate(356.201172 0)"/>
      </g>
     </g>
    </g>
    <g id="text_6">
     <!-- Difficulty Level -->
     <g transform="translate(185.177188 316.706687) scale(0.1 -0.1)">
      <defs>
       <path id="DejaVuSans-44" d="M 1259 4147 
L 1259 519 
L 2022 519 
Q 2988 519 3436 956 
Q 3884 1394 3884 2338 
Q 3884 3275 3436 3711 
Q 2988 4147 2022 4147 
L 1259 4147 
z
M 628 4666 
L 1925 4666 
Q 3281 4666 3915 4102 
Q 4550 3538 4550 2338 
Q 4550 1131 3912 565 
Q 3275 0 1925 0 
L 628 0 
L 628 4666 
z
" transform="scale(0.015625)"/>
       <path id="DejaVuSans-69" d="M 603 3500 
L 1178 3500 
L 1178 0 
L 603 0 
L 603 3500 
z
M 603 4863 
L 1178 4863 
L 1178 4134 
L 603 4134 
L 603 4863 
z
" transform="scale(0.015625)"/>
       <path id="DejaVuSans-66" d="M 2375 4863 
L 2375 4384 
L 1825 4384 
Q 1516 4384 1395 4259 
Q 1275 4134 1275 3809 
L 1275 3500 
L 2222 3500 
L 2222 3053 
L 1275 3053 
L 1275 0 
L 697 0 
L 697 3053 
L 147 3053 
L 147 3500 
L 697 3500 
L 697 3744 
Q 697 4328 969 4595 
Q 1241 4863 1831 4863 
L 2375 4863 
z
" transform="scale(0.015625)"/>
       <path id="DejaVuSans-63" d="M 3122 3366 
L 3122 2828 
Q 2878 2963 2633 3030 
Q 2388 3097 2138 3097 
Q 1578 3097 1268 2742 
Q 959 2388 959 1747 
Q 959 1106 1268 751 
Q 1578 397 2138 397 
Q 2388 397 2633 464 
Q 2878 531 3122 666 
L 3122 134 
Q 2881 22 2623 -34 
Q 2366 -91 2075 -91 
Q 1284 -91 818 406 
Q 353 903 353 1747 
Q 353 2603 823 3093 
Q 1294 3584 2113 3584 
Q 2378 3584 2631 3529 
Q 2884 3475 3122 3366 
z
" transform="scale(0.015625)"/>
       <path id="DejaVuSans-75" d="M 544 1381 
L 544 3500 
L 1119 3500 
L 1119 1403 
Q 1119 906 1312 657 
Q 1506 409 1894 409 
Q 2359 409 2629 706 
Q 2900 1003 2900 1516 
L 2900 3500 
L 3475 3500 
L 3475 0 
L 2900 0 
L 2900 538 
Q 2691 219 2414 64 
Q 2138 -91 1772 -91 
Q 1169 -91 856 284 
Q 544 659 544 1381 
z
M 1991 3584 
L 1991 3584 
z
" transform="scale(0.015625)"/>
       <path id="DejaVuSans-6c" d="M 603 4863 
L 1178 4863 
L 1178 0 
L 603 0 
L 603 4863 
z
" transform="scale(0.015625)"/>
       <path id="DejaVuSans-74" d="M 1172 4494 
L 1172 3500 
L 2356 3500 
L 2356 3053 
L 1172 3053 
L 1172 1153 
Q 1172 725 1289 603 
Q 1406 481 1766 481 
L 2356 481 
L 2356 0 
L 1766 0 
Q 1100 0 847 248 
Q 594 497 594 1153 
L 594 3053 
L 172 3053 
L 172 3500 
L 594 3500 
L 594 4494 
L 1172 4494 
z
" transform="scale(0.015625)"/>
       <path id="DejaVuSans-79" d="M 2059 -325 
Q 1816 -950 1584 -1140 
Q 1353 -1331 966 -1331 
L 506 -1331 
L 506 -850 
L 844 -850 
Q 1081 -850 1212 -737 
Q 1344 -625 1503 -206 
L 1606 56 
L 191 3500 
L 800 3500 
L 1894 763 
L 2988 3500 
L 3597 3500 
L 2059 -325 
z
" transform="scale(0.015625)"/>
       <path id="DejaVuSans-20" transform="scale(0.015625)"/>
       <path id="DejaVuSans-65" d="M 3597 1894 
L 3597 1613 
L 953 1613 
Q 991 1019 1311 708 
Q 1631 397 2203 397 
Q 2534 397 2845 478 
Q 3156 559 3463 722 
L 3463 178 
Q 3153 47 2828 -22 
Q 2503 -91 2169 -91 
Q 1331 -91 842 396 
Q 353 884 353 1716 
Q 353 2575 817 3079 
Q 1281 3584 2069 3584 
Q 2775 3584 3186 3129 
Q 3597 2675 3597 1894 
z
M 3022 2063 
Q 3016 2534 2758 2815 
Q 2500 3097 2075 3097 
Q 1594 3097 1305 2825 
Q 1016 2553 972 2059 
L 3022 2063 
z
" transform="scale(0.015625)"/>
       <path id="DejaVuSans-76" d="M 191 3500 
L 800 3500 
L 1894 563 
L 2988 3500 
L 3597 3500 
L 2284 0 
L 1503 0 
L 191 3500 
z
" transform="scale(0.015625)"/>
      </defs>
      <use xlink:href="#DejaVuSans-44"/>
      <use xlink:href="#DejaVuSans-69" transform="translate(77.001953 0)"/>
      <use xlink:href="#DejaVuSans-66" transform="translate(104.785156 0)"/>
      <use xlink:href="#DejaVuSans-66" transform="translate(139.990234 0)"/>
      <use xlink:href="#DejaVuSans-69" transform="translate(175.195312 0)"/>
      <use xlink:href="#DejaVuSans-63" transform="translate(202.978516 0)"/>
      <use xlink:href="#DejaVuSans-75" transform="translate(257.958984 0)"/>
      <use xlink:href="#DejaVuSans-6c" transform="translate(321.337891 0)"/>
      <use xlink:href="#DejaVuSans-74" transform="translate(349.121094 0)"/>
      <use xlink:href="#DejaVuSans-79" transform="translate(388.330078 0)"/>
      <use xlink:href="#DejaVuSans-20" transform="translate(447.509766 0)"/>
      <use xlink:href="#DejaVuSans-4c" transform="translate(479.296875 0)"/>
      <use xlink:href="#DejaVuSans-65" transform="translate(533.259766 0)"/>
      <use xlink:href="#DejaVuSans-76" transform="translate(594.783203 0)"/>
      <use xlink:href="#DejaVuSans-65" transform="translate(653.962891 0)"/>
      <use xlink:href="#DejaVuSans-6c" transform="translate(715.486328 0)"/>
     </g>
    </g>
   </g>
   <g id="matplotlib.axis_2">
    <g id="ytick_1">
     <g id="line2d_6">
      <defs>
       <path id="m8ef170b477" d="M 0 0 
L -3.5 0 
" style="stroke: #000000; stroke-width: 0.8"/>
      </defs>
      <g>
       <use xlink:href="#m8ef170b477" x="43.78125" y="279.922723" style="stroke: #000000; stroke-width: 0.8"/>
      </g>
     </g>
     <g id="text_7">
      <!-- 0.1 -->
      <g transform="translate(20.878125 283.721941) scale(0.1 -0.1)">
       <defs>
        <path id="DejaVuSans-30" d="M 2034 4250 
Q 1547 4250 1301 3770 
Q 1056 3291 1056 2328 
Q 1056 1369 1301 889 
Q 1547 409 2034 409 
Q 2525 409 2770 889 
Q 3016 1369 3016 2328 
Q 3016 3291 2770 3770 
Q 2525 4250 2034 4250 
z
M 2034 4750 
Q 2819 4750 3233 4129 
Q 3647 3509 3647 2328 
Q 3647 1150 3233 529 
Q 2819 -91 2034 -91 
Q 1250 -91 836 529 
Q 422 1150 422 2328 
Q 422 3509 836 4129 
Q 1250 4750 2034 4750 
z
" transform="scale(0.015625)"/>
        <path id="DejaVuSans-2e" d="M 684 794 
L 1344 794 
L 1344 0 
L 684 0 
L 684 794 
z
" transform="scale(0.015625)"/>
        <path id="DejaVuSans-31" d="M 794 531 
L 1825 531 
L 1825 4091 
L 703 3866 
L 703 4441 
L 1819 4666 
L 2450 4666 
L 2450 531 
L 3481 531 
L 3481 0 
L 794 0 
L 794 531 
z
" transform="scale(0.015625)"/>
       </defs>
       <use xlink:href="#DejaVuSans-30"/>
       <use xlink:href="#DejaVuSans-2e" transform="translate(63.623047 0)"/>
       <use xlink:href="#DejaVuSans-31" transform="translate(95.410156 0)"/>
      </g>
     </g>
    </g>
    <g id="ytick_2">
     <g id="line2d_7">
      <g>
       <use xlink:href="#m8ef170b477" x="43.78125" y="227.251089" style="stroke: #000000; stroke-width: 0.8"/>
      </g>
     </g>
     <g id="text_8">
      <!-- 0.2 -->
      <g transform="translate(20.878125 231.050308) scale(0.1 -0.1)">
       <defs>
        <path id="DejaVuSans-32" d="M 1228 531 
L 3431 531 
L 3431 0 
L 469 0 
L 469 531 
Q 828 903 1448 1529 
Q 2069 2156 2228 2338 
Q 2531 2678 2651 2914 
Q 2772 3150 2772 3378 
Q 2772 3750 2511 3984 
Q 2250 4219 1831 4219 
Q 1534 4219 1204 4116 
Q 875 4013 500 3803 
L 500 4441 
Q 881 4594 1212 4672 
Q 1544 4750 1819 4750 
Q 2544 4750 2975 4387 
Q 3406 4025 3406 3419 
Q 3406 3131 3298 2873 
Q 3191 2616 2906 2266 
Q 2828 2175 2409 1742 
Q 1991 1309 1228 531 
z
" transform="scale(0.015625)"/>
       </defs>
       <use xlink:href="#DejaVuSans-30"/>
       <use xlink:href="#DejaVuSans-2e" transform="translate(63.623047 0)"/>
       <use xlink:href="#DejaVuSans-32" transform="translate(95.410156 0)"/>
      </g>
     </g>
    </g>
    <g id="ytick_3">
     <g id="line2d_8">
      <g>
       <use xlink:href="#m8ef170b477" x="43.78125" y="174.579456" style="stroke: #000000; stroke-width: 0.8"/>
      </g>
     </g>
     <g id="text_9">
      <!-- 0.3 -->
      <g transform="translate(20.878125 178.378674) scale(0.1 -0.1)">
       <defs>
        <path id="DejaVuSans-33" d="M 2597 2516 
Q 3050 2419 3304 2112 
Q 3559 1806 3559 1356 
Q 3559 666 3084 287 
Q 2609 -91 1734 -91 
Q 1441 -91 1130 -33 
Q 819 25 488 141 
L 488 750 
Q 750 597 1062 519 
Q 1375 441 1716 441 
Q 2309 441 2620 675 
Q 2931 909 2931 1356 
Q 2931 1769 2642 2001 
Q 2353 2234 1838 2234 
L 1294 2234 
L 1294 2753 
L 1863 2753 
Q 2328 2753 2575 2939 
Q 2822 3125 2822 3475 
Q 2822 3834 2567 4026 
Q 2313 4219 1838 4219 
Q 1578 4219 1281 4162 
Q 984 4106 628 3988 
L 628 4550 
Q 988 4650 1302 4700 
Q 1616 4750 1894 4750 
Q 2613 4750 3031 4423 
Q 3450 4097 3450 3541 
Q 3450 3153 3228 2886 
Q 3006 2619 2597 2516 
z
" transform="scale(0.015625)"/>
       </defs>
       <use xlink:href="#DejaVuSans-30"/>
       <use xlink:href="#DejaVuSans-2e" transform="translate(63.623047 0)"/>
       <use xlink:href="#DejaVuSans-33" transform="translate(95.410156 0)"/>
      </g>
     </g>
    </g>
    <g id="ytick_4">
     <g id="line2d_9">
      <g>
       <use xlink:href="#m8ef170b477" x="43.78125" y="121.907822" style="stroke: #000000; stroke-width: 0.8"/>
      </g>
     </g>
     <g id="text_10">
      <!-- 0.4 -->
      <g transform="translate(20.878125 125.707041) scale(0.1 -0.1)">
       <defs>
        <path id="DejaVuSans-34" d="M 2419 4116 
L 825 1625 
L 2419 1625 
L 2419 4116 
z
M 2253 4666 
L 3047 4666 
L 3047 1625 
L 3713 1625 
L 3713 1100 
L 3047 1100 
L 3047 0 
L 2419 0 
L 2419 1100 
L 313 1100 
L 313 1709 
L 2253 4666 
z
" transform="scale(0.015625)"/>
       </defs>
       <use xlink:href="#DejaVuSans-30"/>
       <use xlink:href="#DejaVuSans-2e" transform="translate(63.623047 0)"/>
       <use xlink:href="#DejaVuSans-34" transform="translate(95.410156 0)"/>
      </g>
     </g>
    </g>
    <g id="ytick_5">
     <g id="line2d_10">
      <g>
       <use xlink:href="#m8ef170b477" x="43.78125" y="69.236189" style="stroke: #000000; stroke-width: 0.8"/>
      </g>
     </g>
     <g id="text_11">
      <!-- 0.5 -->
      <g transform="translate(20.878125 73.035407) scale(0.1 -0.1)">
       <defs>
        <path id="DejaVuSans-35" d="M 691 4666 
L 3169 4666 
L 3169 4134 
L 1269 4134 
L 1269 2991 
Q 1406 3038 1543 3061 
Q 1681 3084 1819 3084 
Q 2600 3084 3056 2656 
Q 3513 2228 3513 1497 
Q 3513 744 3044 326 
Q 2575 -91 1722 -91 
Q 1428 -91 1123 -41 
Q 819 9 494 109 
L 494 744 
Q 775 591 1075 516 
Q 1375 441 1709 441 
Q 2250 441 2565 725 
Q 2881 1009 2881 1497 
Q 2881 1984 2565 2268 
Q 2250 2553 1709 2553 
Q 1456 2553 1204 2497 
Q 953 2441 691 2322 
L 691 4666 
z
" transform="scale(0.015625)"/>
       </defs>
       <use xlink:href="#DejaVuSans-30"/>
       <use xlink:href="#DejaVuSans-2e" transform="translate(63.623047 0)"/>
       <use xlink:href="#DejaVuSans-35" transform="translate(95.410156 0)"/>
      </g>
     </g>
    </g>
    <g id="text_12">
     <!-- Focus Ratio -->
     <g transform="translate(14.798438 184.074125) rotate(-90) scale(0.1 -0.1)">
      <defs>
       <path id="DejaVuSans-46" d="M 628 4666 
L 3309 4666 
L 3309 4134 
L 1259 4134 
L 1259 2759 
L 3109 2759 
L 3109 2228 
L 1259 2228 
L 1259 0 
L 628 0 
L 628 4666 
z
" transform="scale(0.015625)"/>
       <path id="DejaVuSans-6f" d="M 1959 3097 
Q 1497 3097 1228 2736 
Q 959 2375 959 1747 
Q 959 1119 1226 758 
Q 1494 397 1959 397 
Q 2419 397 2687 759 
Q 2956 1122 2956 1747 
Q 2956 2369 2687 2733 
Q 2419 3097 1959 3097 
z
M 1959 3584 
Q 2709 3584 3137 3096 
Q 3566 2609 3566 1747 
Q 3566 888 3137 398 
Q 2709 -91 1959 -91 
Q 1206 -91 779 398 
Q 353 888 353 1747 
Q 353 2609 779 3096 
Q 1206 3584 1959 3584 
z
" transform="scale(0.015625)"/>
       <path id="DejaVuSans-73" d="M 2834 3397 
L 2834 2853 
Q 2591 2978 2328 3040 
Q 2066 3103 1784 3103 
Q 1356 3103 1142 2972 
Q 928 2841 928 2578 
Q 928 2378 1081 2264 
Q 1234 2150 1697 2047 
L 1894 2003 
Q 2506 1872 2764 1633 
Q 3022 1394 3022 966 
Q 3022 478 2636 193 
Q 2250 -91 1575 -91 
Q 1294 -91 989 -36 
Q 684 19 347 128 
L 347 722 
Q 666 556 975 473 
Q 1284 391 1588 391 
Q 1994 391 2212 530 
Q 2431 669 2431 922 
Q 2431 1156 2273 1281 
Q 2116 1406 1581 1522 
L 1381 1569 
Q 847 1681 609 1914 
Q 372 2147 372 2553 
Q 372 3047 722 3315 
Q 1072 3584 1716 3584 
Q 2034 3584 2315 3537 
Q 2597 3491 2834 3397 
z
" transform="scale(0.015625)"/>
       <path id="DejaVuSans-52" d="M 2841 2188 
Q 3044 2119 3236 1894 
Q 3428 1669 3622 1275 
L 4263 0 
L 3584 0 
L 2988 1197 
Q 2756 1666 2539 1819 
Q 2322 1972 1947 1972 
L 1259 1972 
L 1259 0 
L 628 0 
L 628 4666 
L 2053 4666 
Q 2853 4666 3247 4331 
Q 3641 3997 3641 3322 
Q 3641 2881 3436 2590 
Q 3231 2300 2841 2188 
z
M 1259 4147 
L 1259 2491 
L 2053 2491 
Q 2509 2491 2742 2702 
Q 2975 2913 2975 3322 
Q 2975 3731 2742 3939 
Q 2509 4147 2053 4147 
L 1259 4147 
z
" transform="scale(0.015625)"/>
       <path id="DejaVuSans-61" d="M 2194 1759 
Q 1497 1759 1228 1600 
Q 959 1441 959 1056 
Q 959 750 1161 570 
Q 1363 391 1709 391 
Q 2188 391 2477 730 
Q 2766 1069 2766 1631 
L 2766 1759 
L 2194 1759 
z
M 3341 1997 
L 3341 0 
L 2766 0 
L 2766 531 
Q 2569 213 2275 61 
Q 1981 -91 1556 -91 
Q 1019 -91 701 211 
Q 384 513 384 1019 
Q 384 1609 779 1909 
Q 1175 2209 1959 2209 
L 2766 2209 
L 2766 2266 
Q 2766 2663 2505 2880 
Q 2244 3097 1772 3097 
Q 1472 3097 1187 3025 
Q 903 2953 641 2809 
L 641 3341 
Q 956 3463 1253 3523 
Q 1550 3584 1831 3584 
Q 2591 3584 2966 3190 
Q 3341 2797 3341 1997 
z
" transform="scale(0.015625)"/>
      </defs>
      <use xlink:href="#DejaVuSans-46"/>
      <use xlink:href="#DejaVuSans-6f" transform="translate(53.894531 0)"/>
      <use xlink:href="#DejaVuSans-63" transform="translate(115.076172 0)"/>
      <use xlink:href="#DejaVuSans-75" transform="translate(170.056641 0)"/>
      <use xlink:href="#DejaVuSans-73" transform="translate(233.435547 0)"/>
      <use xlink:href="#DejaVuSans-20" transform="translate(285.535156 0)"/>
      <use xlink:href="#DejaVuSans-52" transform="translate(317.322266 0)"/>
      <use xlink:href="#DejaVuSans-61" transform="translate(384.554688 0)"/>
      <use xlink:href="#DejaVuSans-74" transform="translate(445.833984 0)"/>
      <use xlink:href="#DejaVuSans-69" transform="translate(485.042969 0)"/>
      <use xlink:href="#DejaVuSans-6f" transform="translate(512.826172 0)"/>
     </g>
    </g>
   </g>
   <g id="line2d_11">
    <path d="M 60.013977 270.258439 
L 141.177614 240.118863 
L 222.34125 256.405645 
L 303.504886 113.762098 
L 384.668523 64.98227 
" clip-path="url(#pd37ec6ee39)" style="fill: none; stroke: #1f77b4; stroke-width: 1.5; stroke-linecap: square"/>
   </g>
   <g id="line2d_12">
    <path d="M 60.013977 236.069383 
L 141.177614 217.808198 
L 222.34125 234.957022 
L 303.504886 95.099517 
L 384.668523 35.077916 
" clip-path="url(#pd37ec6ee39)" style="fill: none; stroke: #ff7f0e; stroke-width: 1.5; stroke-linecap: square"/>
   </g>
   <g id="line2d_13">
    <path d="M 60.013977 226.005655 
L 141.177614 216.460285 
L 222.34125 238.313864 
L 303.504886 104.212441 
L 384.668523 39.42858 
" clip-path="url(#pd37ec6ee39)" style="fill: none; stroke: #2ca02c; stroke-width: 1.5; stroke-linecap: square"/>
   </g>
   <g id="line2d_14">
    <path d="M 60.013977 265.271278 
L 141.177614 234.305537 
L 222.34125 242.968907 
L 303.504886 103.2771 
L 384.668523 39.9382 
" clip-path="url(#pd37ec6ee39)" style="fill: none; stroke: #d62728; stroke-width: 1.5; stroke-linecap: square"/>
   </g>
   <g id="line2d_15">
    <path d="M 60.013977 276.334125 
L 141.177614 237.041724 
L 222.34125 254.434952 
L 303.504886 114.446707 
L 384.668523 47.416302 
" clip-path="url(#pd37ec6ee39)" style="fill: none; stroke: #9467bd; stroke-width: 1.5; stroke-linecap: square"/>
   </g>
   <g id="line2d_16">
    <path d="M 60.013977 269.344183 
L 141.177614 236.470345 
L 222.34125 258.656851 
L 303.504886 127.06463 
L 384.668523 56.968921 
" clip-path="url(#pd37ec6ee39)" style="fill: none; stroke: #8c564b; stroke-width: 1.5; stroke-linecap: square"/>
   </g>
   <g id="line2d_17">
    <path d="M 60.013977 257.819333 
L 141.177614 224.6105 
L 222.34125 243.793693 
L 303.504886 101.095803 
L 384.668523 50.700235 
" clip-path="url(#pd37ec6ee39)" style="fill: none; stroke: #e377c2; stroke-width: 1.5; stroke-linecap: square"/>
   </g>
   <g id="line2d_18">
    <path d="M 60.013977 239.071466 
L 141.177614 217.643736 
L 222.34125 232.818895 
L 303.504886 93.420264 
L 384.668523 34.414125 
" clip-path="url(#pd37ec6ee39)" style="fill: none; stroke: #7f7f7f; stroke-width: 1.5; stroke-linecap: square"/>
   </g>
   <g id="line2d_19">
    <path d="M 60.013977 216.353925 
L 141.177614 215.831432 
L 222.34125 234.166347 
L 303.504886 107.780798 
L 384.668523 42.822163 
" clip-path="url(#pd37ec6ee39)" style="fill: none; stroke: #bcbd22; stroke-width: 1.5; stroke-linecap: square"/>
   </g>
   <g id="line2d_20">
    <path d="M 60.013977 253.70595 
L 141.177614 232.509261 
L 222.34125 242.348901 
L 303.504886 98.175149 
L 384.668523 36.55124 
" clip-path="url(#pd37ec6ee39)" style="fill: none; stroke: #17becf; stroke-width: 1.5; stroke-linecap: square"/>
   </g>
   <g id="line2d_21">
    <path d="M 60.013977 266.068478 
L 141.177614 236.890432 
L 222.34125 254.063361 
L 303.504886 110.301227 
L 384.668523 44.241997 
" clip-path="url(#pd37ec6ee39)" style="fill: none; stroke: #1f77b4; stroke-width: 1.5; stroke-linecap: square"/>
   </g>
   <g id="line2d_22">
    <path d="M 60.013977 265.57265 
L 141.177614 234.454792 
L 222.34125 259.578331 
L 303.504886 122.405384 
L 384.668523 53.037045 
" clip-path="url(#pd37ec6ee39)" style="fill: none; stroke: #ff7f0e; stroke-width: 1.5; stroke-linecap: square"/>
   </g>
   <g id="patch_3">
    <path d="M 43.78125 288.430125 
L 43.78125 22.318125 
" style="fill: none; stroke: #000000; stroke-width: 0.8; stroke-linejoin: miter; stroke-linecap: square"/>
   </g>
   <g id="patch_4">
    <path d="M 400.90125 288.430125 
L 400.90125 22.318125 
" style="fill: none; stroke: #000000; stroke-width: 0.8; stroke-linejoin: miter; stroke-linecap: square"/>
   </g>
   <g id="patch_5">
    <path d="M 43.78125 288.430125 
L 400.90125 288.430125 
" style="fill: none; stroke: #000000; stroke-width: 0.8; stroke-linejoin: miter; stroke-linecap: square"/>
   </g>
   <g id="patch_6">
    <path d="M 43.78125 22.318125 
L 400.90125 22.318125 
" style="fill: none; stroke: #000000; stroke-width: 0.8; stroke-linejoin: miter; stroke-linecap: square"/>
   </g>
   <g id="text_13">
    <!-- Focus Ratio vs Difficulty -->
    <g transform="translate(150.560625 16.318125) scale(0.12 -0.12)">
     <use xlink:href="#DejaVuSans-46"/>
     <use xlink:href="#DejaVuSans-6f" transform="translate(53.894531 0)"/>
     <use xlink:href="#DejaVuSans-63" transform="translate(115.076172 0)"/>
     <use xlink:href="#DejaVuSans-75" transform="translate(170.056641 0)"/>
     <use xlink:href="#DejaVuSans-73" transform="translate(233.435547 0)"/>
     <use xlink:href="#DejaVuSans-20" transform="translate(285.535156 0)"/>
     <use xlink:href="#DejaVuSans-52" transform="translate(317.322266 0)"/>
     <use xlink:href="#DejaVuSans-61" transform="translate(384.554688 0)"/>
     <use xlink:href="#DejaVuSans-74" transform="translate(445.833984 0)"/>
     <use xlink:href="#DejaVuSans-69" transform="translate(485.042969 0)"/>
     <use xlink:href="#DejaVuSans-6f" transform="translate(512.826172 0)"/>
     <use xlink:href="#DejaVuSans-20" transform="translate(574.007812 0)"/>
     <use xlink:href="#DejaVuSans-76" transform="translate(605.794922 0)"/>
     <use xlink:href="#DejaVuSans-73" transform="translate(664.974609 0)"/>
     <use xlink:href="#DejaVuSans-20" transform="translate(717.074219 0)"/>
     <use xlink:href="#DejaVuSans-44" transform="translate(748.861328 0)"/>
     <use xlink:href="#DejaVuSans-69" transform="translate(825.863281 0)"/>
     <use xlink:href="#DejaVuSans-66" transform="translate(853.646484 0)"/>
     <use xlink:href="#DejaVuSans-66" transform="translate(888.851562 0)"/>
     <use xlink:href="#DejaVuSans-69" transform="translate(924.056641 0)"/>
     <use xlink:href="#DejaVuSans-63" transform="translate(951.839844 0)"/>
     <use xlink:href="#DejaVuSans-75" transform="translate(1006.820312 0)"/>
     <use xlink:href="#DejaVuSans-6c" transform="translate(1070.199219 0)"/>
     <use xlink:href="#DejaVuSans-74" transform="translate(1097.982422 0)"/>
     <use xlink:href="#DejaVuSans-79" transform="translate(1137.191406 0)"/>
    </g>
   </g>
   <g id="legend_1">
    <g id="patch_7">
     <path d="M 50.78125 206.455625 
L 208.259375 206.455625 
Q 210.259375 206.455625 210.259375 204.455625 
L 210.259375 29.318125 
Q 210.259375 27.318125 208.259375 27.318125 
L 50.78125 27.318125 
Q 48.78125 27.318125 48.78125 29.318125 
L 48.78125 204.455625 
Q 48.78125 206.455625 50.78125 206.455625 
z
" style="fill: #ffffff; opacity: 0.8; stroke: #cccccc; stroke-linejoin: miter"/>
    </g>
    <g id="line2d_23">
     <path d="M 52.78125 35.416562 
L 62.78125 35.416562 
L 72.78125 35.416562 
" style="fill: none; stroke: #1f77b4; stroke-width: 1.5; stroke-linecap: square"/>
    </g>
    <g id="text_14">
     <!-- Baseline YOLOv5nano-P3 -->
     <g transform="translate(80.78125 38.916562) scale(0.1 -0.1)">
      <defs>
       <path id="DejaVuSans-42" d="M 1259 2228 
L 1259 519 
L 2272 519 
Q 2781 519 3026 730 
Q 3272 941 3272 1375 
Q 3272 1813 3026 2020 
Q 2781 2228 2272 2228 
L 1259 2228 
z
M 1259 4147 
L 1259 2741 
L 2194 2741 
Q 2656 2741 2882 2914 
Q 3109 3088 3109 3444 
Q 3109 3797 2882 3972 
Q 2656 4147 2194 4147 
L 1259 4147 
z
M 628 4666 
L 2241 4666 
Q 2963 4666 3353 4366 
Q 3744 4066 3744 3513 
Q 3744 3084 3544 2831 
Q 3344 2578 2956 2516 
Q 3422 2416 3680 2098 
Q 3938 1781 3938 1306 
Q 3938 681 3513 340 
Q 3088 0 2303 0 
L 628 0 
L 628 4666 
z
" transform="scale(0.015625)"/>
       <path id="DejaVuSans-6e" d="M 3513 2113 
L 3513 0 
L 2938 0 
L 2938 2094 
Q 2938 2591 2744 2837 
Q 2550 3084 2163 3084 
Q 1697 3084 1428 2787 
Q 1159 2491 1159 1978 
L 1159 0 
L 581 0 
L 581 3500 
L 1159 3500 
L 1159 2956 
Q 1366 3272 1645 3428 
Q 1925 3584 2291 3584 
Q 2894 3584 3203 3211 
Q 3513 2838 3513 2113 
z
" transform="scale(0.015625)"/>
       <path id="DejaVuSans-59" d="M -13 4666 
L 666 4666 
L 1959 2747 
L 3244 4666 
L 3922 4666 
L 2272 2222 
L 2272 0 
L 1638 0 
L 1638 2222 
L -13 4666 
z
" transform="scale(0.015625)"/>
       <path id="DejaVuSans-4f" d="M 2522 4238 
Q 1834 4238 1429 3725 
Q 1025 3213 1025 2328 
Q 1025 1447 1429 934 
Q 1834 422 2522 422 
Q 3209 422 3611 934 
Q 4013 1447 4013 2328 
Q 4013 3213 3611 3725 
Q 3209 4238 2522 4238 
z
M 2522 4750 
Q 3503 4750 4090 4092 
Q 4678 3434 4678 2328 
Q 4678 1225 4090 567 
Q 3503 -91 2522 -91 
Q 1538 -91 948 565 
Q 359 1222 359 2328 
Q 359 3434 948 4092 
Q 1538 4750 2522 4750 
z
" transform="scale(0.015625)"/>
       <path id="DejaVuSans-2d" d="M 313 2009 
L 1997 2009 
L 1997 1497 
L 313 1497 
L 313 2009 
z
" transform="scale(0.015625)"/>
       <path id="DejaVuSans-50" d="M 1259 4147 
L 1259 2394 
L 2053 2394 
Q 2494 2394 2734 2622 
Q 2975 2850 2975 3272 
Q 2975 3691 2734 3919 
Q 2494 4147 2053 4147 
L 1259 4147 
z
M 628 4666 
L 2053 4666 
Q 2838 4666 3239 4311 
Q 3641 3956 3641 3272 
Q 3641 2581 3239 2228 
Q 2838 1875 2053 1875 
L 1259 1875 
L 1259 0 
L 628 0 
L 628 4666 
z
" transform="scale(0.015625)"/>
      </defs>
      <use xlink:href="#DejaVuSans-42"/>
      <use xlink:href="#DejaVuSans-61" transform="translate(68.603516 0)"/>
      <use xlink:href="#DejaVuSans-73" transform="translate(129.882812 0)"/>
      <use xlink:href="#DejaVuSans-65" transform="translate(181.982422 0)"/>
      <use xlink:href="#DejaVuSans-6c" transform="translate(243.505859 0)"/>
      <use xlink:href="#DejaVuSans-69" transform="translate(271.289062 0)"/>
      <use xlink:href="#DejaVuSans-6e" transform="translate(299.072266 0)"/>
      <use xlink:href="#DejaVuSans-65" transform="translate(362.451172 0)"/>
      <use xlink:href="#DejaVuSans-20" transform="translate(423.974609 0)"/>
      <use xlink:href="#DejaVuSans-59" transform="translate(455.761719 0)"/>
      <use xlink:href="#DejaVuSans-4f" transform="translate(511.345703 0)"/>
      <use xlink:href="#DejaVuSans-4c" transform="translate(590.056641 0)"/>
      <use xlink:href="#DejaVuSans-4f" transform="translate(642.144531 0)"/>
      <use xlink:href="#DejaVuSans-76" transform="translate(720.855469 0)"/>
      <use xlink:href="#DejaVuSans-35" transform="translate(780.035156 0)"/>
      <use xlink:href="#DejaVuSans-6e" transform="translate(843.658203 0)"/>
      <use xlink:href="#DejaVuSans-61" transform="translate(907.037109 0)"/>
      <use xlink:href="#DejaVuSans-6e" transform="translate(968.316406 0)"/>
      <use xlink:href="#DejaVuSans-6f" transform="translate(1031.695312 0)"/>
      <use xlink:href="#DejaVuSans-2d" transform="translate(1094.751953 0)"/>
      <use xlink:href="#DejaVuSans-50" transform="translate(1130.835938 0)"/>
      <use xlink:href="#DejaVuSans-33" transform="translate(1191.138672 0)"/>
     </g>
    </g>
    <g id="line2d_24">
     <path d="M 52.78125 50.094687 
L 62.78125 50.094687 
L 72.78125 50.094687 
" style="fill: none; stroke: #ff7f0e; stroke-width: 1.5; stroke-linecap: square"/>
    </g>
    <g id="text_15">
     <!-- Baseline YOLOv5nano-P4 -->
     <g transform="translate(80.78125 53.594687) scale(0.1 -0.1)">
      <use xlink:href="#DejaVuSans-42"/>
      <use xlink:href="#DejaVuSans-61" transform="translate(68.603516 0)"/>
      <use xlink:href="#DejaVuSans-73" transform="translate(129.882812 0)"/>
      <use xlink:href="#DejaVuSans-65" transform="translate(181.982422 0)"/>
      <use xlink:href="#DejaVuSans-6c" transform="translate(243.505859 0)"/>
      <use xlink:href="#DejaVuSans-69" transform="translate(271.289062 0)"/>
      <use xlink:href="#DejaVuSans-6e" transform="translate(299.072266 0)"/>
      <use xlink:href="#DejaVuSans-65" transform="translate(362.451172 0)"/>
      <use xlink:href="#DejaVuSans-20" transform="translate(423.974609 0)"/>
      <use xlink:href="#DejaVuSans-59" transform="translate(455.761719 0)"/>
      <use xlink:href="#DejaVuSans-4f" transform="translate(511.345703 0)"/>
      <use xlink:href="#DejaVuSans-4c" transform="translate(590.056641 0)"/>
      <use xlink:href="#DejaVuSans-4f" transform="translate(642.144531 0)"/>
      <use xlink:href="#DejaVuSans-76" transform="translate(720.855469 0)"/>
      <use xlink:href="#DejaVuSans-35" transform="translate(780.035156 0)"/>
      <use xlink:href="#DejaVuSans-6e" transform="translate(843.658203 0)"/>
      <use xlink:href="#DejaVuSans-61" transform="translate(907.037109 0)"/>
      <use xlink:href="#DejaVuSans-6e" transform="translate(968.316406 0)"/>
      <use xlink:href="#DejaVuSans-6f" transform="translate(1031.695312 0)"/>
      <use xlink:href="#DejaVuSans-2d" transform="translate(1094.751953 0)"/>
      <use xlink:href="#DejaVuSans-50" transform="translate(1130.835938 0)"/>
      <use xlink:href="#DejaVuSans-34" transform="translate(1191.138672 0)"/>
     </g>
    </g>
    <g id="line2d_25">
     <path d="M 52.78125 64.772812 
L 62.78125 64.772812 
L 72.78125 64.772812 
" style="fill: none; stroke: #2ca02c; stroke-width: 1.5; stroke-linecap: square"/>
    </g>
    <g id="text_16">
     <!-- Baseline YOLOv5nano-P5 -->
     <g transform="translate(80.78125 68.272812) scale(0.1 -0.1)">
      <use xlink:href="#DejaVuSans-42"/>
      <use xlink:href="#DejaVuSans-61" transform="translate(68.603516 0)"/>
      <use xlink:href="#DejaVuSans-73" transform="translate(129.882812 0)"/>
      <use xlink:href="#DejaVuSans-65" transform="translate(181.982422 0)"/>
      <use xlink:href="#DejaVuSans-6c" transform="translate(243.505859 0)"/>
      <use xlink:href="#DejaVuSans-69" transform="translate(271.289062 0)"/>
      <use xlink:href="#DejaVuSans-6e" transform="translate(299.072266 0)"/>
      <use xlink:href="#DejaVuSans-65" transform="translate(362.451172 0)"/>
      <use xlink:href="#DejaVuSans-20" transform="translate(423.974609 0)"/>
      <use xlink:href="#DejaVuSans-59" transform="translate(455.761719 0)"/>
      <use xlink:href="#DejaVuSans-4f" transform="translate(511.345703 0)"/>
      <use xlink:href="#DejaVuSans-4c" transform="translate(590.056641 0)"/>
      <use xlink:href="#DejaVuSans-4f" transform="translate(642.144531 0)"/>
      <use xlink:href="#DejaVuSans-76" transform="translate(720.855469 0)"/>
      <use xlink:href="#DejaVuSans-35" transform="translate(780.035156 0)"/>
      <use xlink:href="#DejaVuSans-6e" transform="translate(843.658203 0)"/>
      <use xlink:href="#DejaVuSans-61" transform="translate(907.037109 0)"/>
      <use xlink:href="#DejaVuSans-6e" transform="translate(968.316406 0)"/>
      <use xlink:href="#DejaVuSans-6f" transform="translate(1031.695312 0)"/>
      <use xlink:href="#DejaVuSans-2d" transform="translate(1094.751953 0)"/>
      <use xlink:href="#DejaVuSans-50" transform="translate(1130.835938 0)"/>
      <use xlink:href="#DejaVuSans-35" transform="translate(1191.138672 0)"/>
     </g>
    </g>
    <g id="line2d_26">
     <path d="M 52.78125 79.450937 
L 62.78125 79.450937 
L 72.78125 79.450937 
" style="fill: none; stroke: #d62728; stroke-width: 1.5; stroke-linecap: square"/>
    </g>
    <g id="text_17">
     <!-- Baseline YOLOv7tiny-P3 -->
     <g transform="translate(80.78125 82.950937) scale(0.1 -0.1)">
      <defs>
       <path id="DejaVuSans-37" d="M 525 4666 
L 3525 4666 
L 3525 4397 
L 1831 0 
L 1172 0 
L 2766 4134 
L 525 4134 
L 525 4666 
z
" transform="scale(0.015625)"/>
      </defs>
      <use xlink:href="#DejaVuSans-42"/>
      <use xlink:href="#DejaVuSans-61" transform="translate(68.603516 0)"/>
      <use xlink:href="#DejaVuSans-73" transform="translate(129.882812 0)"/>
      <use xlink:href="#DejaVuSans-65" transform="translate(181.982422 0)"/>
      <use xlink:href="#DejaVuSans-6c" transform="translate(243.505859 0)"/>
      <use xlink:href="#DejaVuSans-69" transform="translate(271.289062 0)"/>
      <use xlink:href="#DejaVuSans-6e" transform="translate(299.072266 0)"/>
      <use xlink:href="#DejaVuSans-65" transform="translate(362.451172 0)"/>
      <use xlink:href="#DejaVuSans-20" transform="translate(423.974609 0)"/>
      <use xlink:href="#DejaVuSans-59" transform="translate(455.761719 0)"/>
      <use xlink:href="#DejaVuSans-4f" transform="translate(511.345703 0)"/>
      <use xlink:href="#DejaVuSans-4c" transform="translate(590.056641 0)"/>
      <use xlink:href="#DejaVuSans-4f" transform="translate(642.144531 0)"/>
      <use xlink:href="#DejaVuSans-76" transform="translate(720.855469 0)"/>
      <use xlink:href="#DejaVuSans-37" transform="translate(780.035156 0)"/>
      <use xlink:href="#DejaVuSans-74" transform="translate(843.658203 0)"/>
      <use xlink:href="#DejaVuSans-69" transform="translate(882.867188 0)"/>
      <use xlink:href="#DejaVuSans-6e" transform="translate(910.650391 0)"/>
      <use xlink:href="#DejaVuSans-79" transform="translate(974.029297 0)"/>
      <use xlink:href="#DejaVuSans-2d" transform="translate(1031.458984 0)"/>
      <use xlink:href="#DejaVuSans-50" transform="translate(1067.542969 0)"/>
      <use xlink:href="#DejaVuSans-33" transform="translate(1127.845703 0)"/>
     </g>
    </g>
    <g id="line2d_27">
     <path d="M 52.78125 94.129062 
L 62.78125 94.129062 
L 72.78125 94.129062 
" style="fill: none; stroke: #9467bd; stroke-width: 1.5; stroke-linecap: square"/>
    </g>
    <g id="text_18">
     <!-- Baseline YOLOv7tiny-P4 -->
     <g transform="translate(80.78125 97.629062) scale(0.1 -0.1)">
      <use xlink:href="#DejaVuSans-42"/>
      <use xlink:href="#DejaVuSans-61" transform="translate(68.603516 0)"/>
      <use xlink:href="#DejaVuSans-73" transform="translate(129.882812 0)"/>
      <use xlink:href="#DejaVuSans-65" transform="translate(181.982422 0)"/>
      <use xlink:href="#DejaVuSans-6c" transform="translate(243.505859 0)"/>
      <use xlink:href="#DejaVuSans-69" transform="translate(271.289062 0)"/>
      <use xlink:href="#DejaVuSans-6e" transform="translate(299.072266 0)"/>
      <use xlink:href="#DejaVuSans-65" transform="translate(362.451172 0)"/>
      <use xlink:href="#DejaVuSans-20" transform="translate(423.974609 0)"/>
      <use xlink:href="#DejaVuSans-59" transform="translate(455.761719 0)"/>
      <use xlink:href="#DejaVuSans-4f" transform="translate(511.345703 0)"/>
      <use xlink:href="#DejaVuSans-4c" transform="translate(590.056641 0)"/>
      <use xlink:href="#DejaVuSans-4f" transform="translate(642.144531 0)"/>
      <use xlink:href="#DejaVuSans-76" transform="translate(720.855469 0)"/>
      <use xlink:href="#DejaVuSans-37" transform="translate(780.035156 0)"/>
      <use xlink:href="#DejaVuSans-74" transform="translate(843.658203 0)"/>
      <use xlink:href="#DejaVuSans-69" transform="translate(882.867188 0)"/>
      <use xlink:href="#DejaVuSans-6e" transform="translate(910.650391 0)"/>
      <use xlink:href="#DejaVuSans-79" transform="translate(974.029297 0)"/>
      <use xlink:href="#DejaVuSans-2d" transform="translate(1031.458984 0)"/>
      <use xlink:href="#DejaVuSans-50" transform="translate(1067.542969 0)"/>
      <use xlink:href="#DejaVuSans-34" transform="translate(1127.845703 0)"/>
     </g>
    </g>
    <g id="line2d_28">
     <path d="M 52.78125 108.807187 
L 62.78125 108.807187 
L 72.78125 108.807187 
" style="fill: none; stroke: #8c564b; stroke-width: 1.5; stroke-linecap: square"/>
    </g>
    <g id="text_19">
     <!-- Baseline YOLOv7tiny-P5 -->
     <g transform="translate(80.78125 112.307187) scale(0.1 -0.1)">
      <use xlink:href="#DejaVuSans-42"/>
      <use xlink:href="#DejaVuSans-61" transform="translate(68.603516 0)"/>
      <use xlink:href="#DejaVuSans-73" transform="translate(129.882812 0)"/>
      <use xlink:href="#DejaVuSans-65" transform="translate(181.982422 0)"/>
      <use xlink:href="#DejaVuSans-6c" transform="translate(243.505859 0)"/>
      <use xlink:href="#DejaVuSans-69" transform="translate(271.289062 0)"/>
      <use xlink:href="#DejaVuSans-6e" transform="translate(299.072266 0)"/>
      <use xlink:href="#DejaVuSans-65" transform="translate(362.451172 0)"/>
      <use xlink:href="#DejaVuSans-20" transform="translate(423.974609 0)"/>
      <use xlink:href="#DejaVuSans-59" transform="translate(455.761719 0)"/>
      <use xlink:href="#DejaVuSans-4f" transform="translate(511.345703 0)"/>
      <use xlink:href="#DejaVuSans-4c" transform="translate(590.056641 0)"/>
      <use xlink:href="#DejaVuSans-4f" transform="translate(642.144531 0)"/>
      <use xlink:href="#DejaVuSans-76" transform="translate(720.855469 0)"/>
      <use xlink:href="#DejaVuSans-37" transform="translate(780.035156 0)"/>
      <use xlink:href="#DejaVuSans-74" transform="translate(843.658203 0)"/>
      <use xlink:href="#DejaVuSans-69" transform="translate(882.867188 0)"/>
      <use xlink:href="#DejaVuSans-6e" transform="translate(910.650391 0)"/>
      <use xlink:href="#DejaVuSans-79" transform="translate(974.029297 0)"/>
      <use xlink:href="#DejaVuSans-2d" transform="translate(1031.458984 0)"/>
      <use xlink:href="#DejaVuSans-50" transform="translate(1067.542969 0)"/>
      <use xlink:href="#DejaVuSans-35" transform="translate(1127.845703 0)"/>
     </g>
    </g>
    <g id="line2d_29">
     <path d="M 52.78125 123.485312 
L 62.78125 123.485312 
L 72.78125 123.485312 
" style="fill: none; stroke: #e377c2; stroke-width: 1.5; stroke-linecap: square"/>
    </g>
    <g id="text_20">
     <!-- CL YOLOv5nano-P3 -->
     <g transform="translate(80.78125 126.985312) scale(0.1 -0.1)">
      <defs>
       <path id="DejaVuSans-43" d="M 4122 4306 
L 4122 3641 
Q 3803 3938 3442 4084 
Q 3081 4231 2675 4231 
Q 1875 4231 1450 3742 
Q 1025 3253 1025 2328 
Q 1025 1406 1450 917 
Q 1875 428 2675 428 
Q 3081 428 3442 575 
Q 3803 722 4122 1019 
L 4122 359 
Q 3791 134 3420 21 
Q 3050 -91 2638 -91 
Q 1578 -91 968 557 
Q 359 1206 359 2328 
Q 359 3453 968 4101 
Q 1578 4750 2638 4750 
Q 3056 4750 3426 4639 
Q 3797 4528 4122 4306 
z
" transform="scale(0.015625)"/>
      </defs>
      <use xlink:href="#DejaVuSans-43"/>
      <use xlink:href="#DejaVuSans-4c" transform="translate(69.824219 0)"/>
      <use xlink:href="#DejaVuSans-20" transform="translate(125.537109 0)"/>
      <use xlink:href="#DejaVuSans-59" transform="translate(157.324219 0)"/>
      <use xlink:href="#DejaVuSans-4f" transform="translate(212.908203 0)"/>
      <use xlink:href="#DejaVuSans-4c" transform="translate(291.619141 0)"/>
      <use xlink:href="#DejaVuSans-4f" transform="translate(343.707031 0)"/>
      <use xlink:href="#DejaVuSans-76" transform="translate(422.417969 0)"/>
      <use xlink:href="#DejaVuSans-35" transform="translate(481.597656 0)"/>
      <use xlink:href="#DejaVuSans-6e" transform="translate(545.220703 0)"/>
      <use xlink:href="#DejaVuSans-61" transform="translate(608.599609 0)"/>
      <use xlink:href="#DejaVuSans-6e" transform="translate(669.878906 0)"/>
      <use xlink:href="#DejaVuSans-6f" transform="translate(733.257812 0)"/>
      <use xlink:href="#DejaVuSans-2d" transform="translate(796.314453 0)"/>
      <use xlink:href="#DejaVuSans-50" transform="translate(832.398438 0)"/>
      <use xlink:href="#DejaVuSans-33" transform="translate(892.701172 0)"/>
     </g>
    </g>
    <g id="line2d_30">
     <path d="M 52.78125 138.163437 
L 62.78125 138.163437 
L 72.78125 138.163437 
" style="fill: none; stroke: #7f7f7f; stroke-width: 1.5; stroke-linecap: square"/>
    </g>
    <g id="text_21">
     <!-- CL YOLOv5nano-P4 -->
     <g transform="translate(80.78125 141.663437) scale(0.1 -0.1)">
      <use xlink:href="#DejaVuSans-43"/>
      <use xlink:href="#DejaVuSans-4c" transform="translate(69.824219 0)"/>
      <use xlink:href="#DejaVuSans-20" transform="translate(125.537109 0)"/>
      <use xlink:href="#DejaVuSans-59" transform="translate(157.324219 0)"/>
      <use xlink:href="#DejaVuSans-4f" transform="translate(212.908203 0)"/>
      <use xlink:href="#DejaVuSans-4c" transform="translate(291.619141 0)"/>
      <use xlink:href="#DejaVuSans-4f" transform="translate(343.707031 0)"/>
      <use xlink:href="#DejaVuSans-76" transform="translate(422.417969 0)"/>
      <use xlink:href="#DejaVuSans-35" transform="translate(481.597656 0)"/>
      <use xlink:href="#DejaVuSans-6e" transform="translate(545.220703 0)"/>
      <use xlink:href="#DejaVuSans-61" transform="translate(608.599609 0)"/>
      <use xlink:href="#DejaVuSans-6e" transform="translate(669.878906 0)"/>
      <use xlink:href="#DejaVuSans-6f" transform="translate(733.257812 0)"/>
      <use xlink:href="#DejaVuSans-2d" transform="translate(796.314453 0)"/>
      <use xlink:href="#DejaVuSans-50" transform="translate(832.398438 0)"/>
      <use xlink:href="#DejaVuSans-34" transform="translate(892.701172 0)"/>
     </g>
    </g>
    <g id="line2d_31">
     <path d="M 52.78125 152.841562 
L 62.78125 152.841562 
L 72.78125 152.841562 
" style="fill: none; stroke: #bcbd22; stroke-width: 1.5; stroke-linecap: square"/>
    </g>
    <g id="text_22">
     <!-- CL YOLOv5nano-P5 -->
     <g transform="translate(80.78125 156.341562) scale(0.1 -0.1)">
      <use xlink:href="#DejaVuSans-43"/>
      <use xlink:href="#DejaVuSans-4c" transform="translate(69.824219 0)"/>
      <use xlink:href="#DejaVuSans-20" transform="translate(125.537109 0)"/>
      <use xlink:href="#DejaVuSans-59" transform="translate(157.324219 0)"/>
      <use xlink:href="#DejaVuSans-4f" transform="translate(212.908203 0)"/>
      <use xlink:href="#DejaVuSans-4c" transform="translate(291.619141 0)"/>
      <use xlink:href="#DejaVuSans-4f" transform="translate(343.707031 0)"/>
      <use xlink:href="#DejaVuSans-76" transform="translate(422.417969 0)"/>
      <use xlink:href="#DejaVuSans-35" transform="translate(481.597656 0)"/>
      <use xlink:href="#DejaVuSans-6e" transform="translate(545.220703 0)"/>
      <use xlink:href="#DejaVuSans-61" transform="translate(608.599609 0)"/>
      <use xlink:href="#DejaVuSans-6e" transform="translate(669.878906 0)"/>
      <use xlink:href="#DejaVuSans-6f" transform="translate(733.257812 0)"/>
      <use xlink:href="#DejaVuSans-2d" transform="translate(796.314453 0)"/>
      <use xlink:href="#DejaVuSans-50" transform="translate(832.398438 0)"/>
      <use xlink:href="#DejaVuSans-35" transform="translate(892.701172 0)"/>
     </g>
    </g>
    <g id="line2d_32">
     <path d="M 52.78125 167.519687 
L 62.78125 167.519687 
L 72.78125 167.519687 
" style="fill: none; stroke: #17becf; stroke-width: 1.5; stroke-linecap: square"/>
    </g>
    <g id="text_23">
     <!-- CL YOLOv7tiny-P3 -->
     <g transform="translate(80.78125 171.019687) scale(0.1 -0.1)">
      <use xlink:href="#DejaVuSans-43"/>
      <use xlink:href="#DejaVuSans-4c" transform="translate(69.824219 0)"/>
      <use xlink:href="#DejaVuSans-20" transform="translate(125.537109 0)"/>
      <use xlink:href="#DejaVuSans-59" transform="translate(157.324219 0)"/>
      <use xlink:href="#DejaVuSans-4f" transform="translate(212.908203 0)"/>
      <use xlink:href="#DejaVuSans-4c" transform="translate(291.619141 0)"/>
      <use xlink:href="#DejaVuSans-4f" transform="translate(343.707031 0)"/>
      <use xlink:href="#DejaVuSans-76" transform="translate(422.417969 0)"/>
      <use xlink:href="#DejaVuSans-37" transform="translate(481.597656 0)"/>
      <use xlink:href="#DejaVuSans-74" transform="translate(545.220703 0)"/>
      <use xlink:href="#DejaVuSans-69" transform="translate(584.429688 0)"/>
      <use xlink:href="#DejaVuSans-6e" transform="translate(612.212891 0)"/>
      <use xlink:href="#DejaVuSans-79" transform="translate(675.591797 0)"/>
      <use xlink:href="#DejaVuSans-2d" transform="translate(733.021484 0)"/>
      <use xlink:href="#DejaVuSans-50" transform="translate(769.105469 0)"/>
      <use xlink:href="#DejaVuSans-33" transform="translate(829.408203 0)"/>
     </g>
    </g>
    <g id="line2d_33">
     <path d="M 52.78125 182.197812 
L 62.78125 182.197812 
L 72.78125 182.197812 
" style="fill: none; stroke: #1f77b4; stroke-width: 1.5; stroke-linecap: square"/>
    </g>
    <g id="text_24">
     <!-- CL YOLOv7tiny-P4 -->
     <g transform="translate(80.78125 185.697812) scale(0.1 -0.1)">
      <use xlink:href="#DejaVuSans-43"/>
      <use xlink:href="#DejaVuSans-4c" transform="translate(69.824219 0)"/>
      <use xlink:href="#DejaVuSans-20" transform="translate(125.537109 0)"/>
      <use xlink:href="#DejaVuSans-59" transform="translate(157.324219 0)"/>
      <use xlink:href="#DejaVuSans-4f" transform="translate(212.908203 0)"/>
      <use xlink:href="#DejaVuSans-4c" transform="translate(291.619141 0)"/>
      <use xlink:href="#DejaVuSans-4f" transform="translate(343.707031 0)"/>
      <use xlink:href="#DejaVuSans-76" transform="translate(422.417969 0)"/>
      <use xlink:href="#DejaVuSans-37" transform="translate(481.597656 0)"/>
      <use xlink:href="#DejaVuSans-74" transform="translate(545.220703 0)"/>
      <use xlink:href="#DejaVuSans-69" transform="translate(584.429688 0)"/>
      <use xlink:href="#DejaVuSans-6e" transform="translate(612.212891 0)"/>
      <use xlink:href="#DejaVuSans-79" transform="translate(675.591797 0)"/>
      <use xlink:href="#DejaVuSans-2d" transform="translate(733.021484 0)"/>
      <use xlink:href="#DejaVuSans-50" transform="translate(769.105469 0)"/>
      <use xlink:href="#DejaVuSans-34" transform="translate(829.408203 0)"/>
     </g>
    </g>
    <g id="line2d_34">
     <path d="M 52.78125 196.875937 
L 62.78125 196.875937 
L 72.78125 196.875937 
" style="fill: none; stroke: #ff7f0e; stroke-width: 1.5; stroke-linecap: square"/>
    </g>
    <g id="text_25">
     <!-- CL YOLOv7tiny-P5 -->
     <g transform="translate(80.78125 200.375937) scale(0.1 -0.1)">
      <use xlink:href="#DejaVuSans-43"/>
      <use xlink:href="#DejaVuSans-4c" transform="translate(69.824219 0)"/>
      <use xlink:href="#DejaVuSans-20" transform="translate(125.537109 0)"/>
      <use xlink:href="#DejaVuSans-59" transform="translate(157.324219 0)"/>
      <use xlink:href="#DejaVuSans-4f" transform="translate(212.908203 0)"/>
      <use xlink:href="#DejaVuSans-4c" transform="translate(291.619141 0)"/>
      <use xlink:href="#DejaVuSans-4f" transform="translate(343.707031 0)"/>
      <use xlink:href="#DejaVuSans-76" transform="translate(422.417969 0)"/>
      <use xlink:href="#DejaVuSans-37" transform="translate(481.597656 0)"/>
      <use xlink:href="#DejaVuSans-74" transform="translate(545.220703 0)"/>
      <use xlink:href="#DejaVuSans-69" transform="translate(584.429688 0)"/>
      <use xlink:href="#DejaVuSans-6e" transform="translate(612.212891 0)"/>
      <use xlink:href="#DejaVuSans-79" transform="translate(675.591797 0)"/>
      <use xlink:href="#DejaVuSans-2d" transform="translate(733.021484 0)"/>
      <use xlink:href="#DejaVuSans-50" transform="translate(769.105469 0)"/>
      <use xlink:href="#DejaVuSans-35" transform="translate(829.408203 0)"/>
     </g>
    </g>
   </g>
  </g>
 </g>
 <defs>
  <clipPath id="pd37ec6ee39">
   <rect x="43.78125" y="22.318125" width="357.12" height="266.112"/>
  </clipPath>
 </defs>
</svg>
